<svg xmlns="http://www.w3.org/2000/svg" width="35" height="35" viewBox="0 0 35 35">
  <g id="Group_4619" data-name="Group 4619" transform="translate(-556 -8929)">
    <path id="Path_1387" data-name="Path 1387" d="M34.9,10.285a12.828,12.828,0,0,0-.814-4.249,8.572,8.572,0,0,0-2.019-3.1,8.578,8.578,0,0,0-3.1-2.019A12.868,12.868,0,0,0,24.715.106C22.908.022,22.292,0,17.933,0h-.867c-4.357,0-4.973.022-6.782.106A12.868,12.868,0,0,0,6.036.918a8.59,8.59,0,0,0-3.1,2.019,8.59,8.59,0,0,0-2.019,3.1,12.868,12.868,0,0,0-.812,4.249C.02,12.152,0,12.747,0,17.5s.02,5.349.106,7.215a12.868,12.868,0,0,0,.812,4.249,8.578,8.578,0,0,0,2.019,3.1,8.572,8.572,0,0,0,3.1,2.019,12.864,12.864,0,0,0,4.249.814c1.867.085,2.462.1,7.215.1s5.349-.02,7.215-.1a12.864,12.864,0,0,0,4.249-.814,8.958,8.958,0,0,0,5.118-5.118,12.828,12.828,0,0,0,.814-4.249c.082-1.807.1-2.423.1-6.782v-.867C35,12.709,34.978,12.094,34.9,10.285ZM31.745,24.572a9.683,9.683,0,0,1-.6,3.249,5.8,5.8,0,0,1-3.322,3.322,9.683,9.683,0,0,1-3.249.6c-1.845.085-2.4.1-7.072.1s-5.227-.017-7.072-.1a9.7,9.7,0,0,1-3.249-.6,5.426,5.426,0,0,1-2.012-1.31,5.411,5.411,0,0,1-1.308-2.012,9.673,9.673,0,0,1-.6-3.249c-.084-1.845-.1-2.4-.1-7.072s.018-5.227.1-7.072a9.689,9.689,0,0,1,.6-3.249A5.411,5.411,0,0,1,5.167,5.167,5.423,5.423,0,0,1,7.179,3.858a9.689,9.689,0,0,1,3.249-.6c1.846-.084,2.4-.1,7.072-.1s5.227.018,7.072.1a9.673,9.673,0,0,1,3.249.6,5.411,5.411,0,0,1,2.012,1.308,5.415,5.415,0,0,1,1.31,2.012,9.7,9.7,0,0,1,.6,3.249c.085,1.845.1,2.4.1,7.072S31.83,22.727,31.745,24.572Z" transform="translate(556 8929)" fill="#fff"/>
    <path id="Path_1388" data-name="Path 1388" d="M15.1,6.11A8.986,8.986,0,1,0,24.084,15.1,8.986,8.986,0,0,0,15.1,6.11Zm0,14.82A5.834,5.834,0,1,1,20.93,15.1,5.834,5.834,0,0,1,15.1,20.93Z" transform="translate(558.404 8931.404)" fill="#fff"/>
    <path id="Path_1389" data-name="Path 1389" d="M19.856,4.348a2.1,2.1,0,1,0,2.1,2.1A2.1,2.1,0,0,0,19.856,4.348Z" transform="translate(562.986 8930.711)" fill="#fff"/>
  </g>
</svg>
