<svg id="Group_4703" data-name="Group 4703" xmlns="http://www.w3.org/2000/svg" xmlns:xlink="http://www.w3.org/1999/xlink" width="169.164" height="21.181" viewBox="0 0 169.164 21.181">
  <defs>
    <clipPath id="clip-path">
      <rect id="Rectangle_4820" data-name="Rectangle 4820" width="169.164" height="21.181" fill="#818181"/>
    </clipPath>
  </defs>
  <g id="Group_3609" data-name="Group 3609" clip-path="url(#clip-path)">
    <path id="Path_23494" data-name="Path 23494" d="M85.5,16.115a2.2,2.2,0,0,1-1.564-.578,2.122,2.122,0,0,1-.637-1.6V9.666H81.943V8.357h1.352V6.02h1.446V8.357h1.887V9.666H84.742v3.8a1.39,1.39,0,0,0,.3,1.036.976.976,0,0,0,.677.273,1.472,1.472,0,0,0,.337-.04,1.672,1.672,0,0,0,.307-.1l.456,1.278a3.932,3.932,0,0,1-1.322.2" fill="#818181"/>
    <path id="Path_23495" data-name="Path 23495" d="M91.39,16.243a3.7,3.7,0,0,1-2.8-1.153,4.046,4.046,0,0,1-1.1-2.913,4.126,4.126,0,0,1,1.068-2.9,3.868,3.868,0,0,1,5.463-.062,4.362,4.362,0,0,1,1.013,3.077l-.015.155H88.969a2.475,2.475,0,0,0,.754,1.807,2.449,2.449,0,0,0,3.463-.064,2.421,2.421,0,0,0,.435-.621l1.289.623A3.81,3.81,0,0,1,93.471,15.7a4,4,0,0,1-2.081.545m-2.311-4.985H93.5a1.9,1.9,0,0,0-.652-1.316,2.292,2.292,0,0,0-1.58-.523,2.11,2.11,0,0,0-1.407.5,2.375,2.375,0,0,0-.778,1.338Z" fill="#818181"/>
    <path id="Path_23496" data-name="Path 23496" d="M99.957,16.243a3.818,3.818,0,0,1-2.842-1.156A4.085,4.085,0,0,1,96,12.173a4.019,4.019,0,0,1,1.116-2.91A3.821,3.821,0,0,1,99.96,8.11a3.641,3.641,0,0,1,2.06.584,3.571,3.571,0,0,1,1.32,1.612l-1.32.546a2.174,2.174,0,0,0-2.154-1.433,2.239,2.239,0,0,0-1.713.794,3.078,3.078,0,0,0,0,3.926A2.367,2.367,0,0,0,102.1,13.5l1.288.545a3.416,3.416,0,0,1-1.328,1.612,3.779,3.779,0,0,1-2.1.585" fill="#818181"/>
    <path id="Path_23497" data-name="Path 23497" d="M104.64,4.837h1.446V8.358l-.063,1.059h.063a2.551,2.551,0,0,1,1.014-.935,2.927,2.927,0,0,1,1.422-.375,2.862,2.862,0,0,1,2.177.8,3.188,3.188,0,0,1,.762,2.282v4.8h-1.446V11.474q0-2.057-1.839-2.056a1.864,1.864,0,0,0-1.484.723,2.556,2.556,0,0,0-.6,1.691v4.159H104.64Z" fill="#818181"/>
    <path id="Path_23498" data-name="Path 23498" d="M113.16,8.358h1.383V9.417h.063a2.558,2.558,0,0,1,1.014-.935,2.915,2.915,0,0,1,1.422-.374,2.861,2.861,0,0,1,2.177.8,3.189,3.189,0,0,1,.763,2.282v4.8h-1.446v-4.7a1.693,1.693,0,0,0-1.492-1.872,1.655,1.655,0,0,0-.41,0,1.814,1.814,0,0,0-1.446.693,2.5,2.5,0,0,0-.582,1.658v4.221H113.16Z" fill="#818181"/>
    <path id="Path_23499" data-name="Path 23499" d="M121.242,12.174a4.02,4.02,0,0,1,1.116-2.913A3.825,3.825,0,0,1,125.2,8.108a3.768,3.768,0,0,1,2.829,1.153,4.317,4.317,0,0,1,0,5.826,3.767,3.767,0,0,1-2.829,1.152,3.82,3.82,0,0,1-2.846-1.152,4.016,4.016,0,0,1-1.116-2.913m1.446,0a2.78,2.78,0,0,0,.723,1.994,2.486,2.486,0,0,0,3.513.071l.071-.071a3.091,3.091,0,0,0,0-3.973,2.453,2.453,0,0,0-3.467-.117q-.06.057-.117.117a2.763,2.763,0,0,0-.726,1.979Z" fill="#818181"/>
    <rect id="Rectangle_4817" data-name="Rectangle 4817" width="1.446" height="11.154" transform="translate(130.402 4.837)" fill="#818181"/>
    <path id="Path_23500" data-name="Path 23500" d="M133.09,12.174a4.02,4.02,0,0,1,1.116-2.913,3.818,3.818,0,0,1,2.846-1.153,3.768,3.768,0,0,1,2.829,1.153,4.317,4.317,0,0,1,0,5.826,3.767,3.767,0,0,1-2.829,1.152,3.821,3.821,0,0,1-2.846-1.152,4.016,4.016,0,0,1-1.116-2.913m1.446,0a2.78,2.78,0,0,0,.723,1.994,2.486,2.486,0,0,0,3.513.071c.024-.023.048-.047.071-.071a3.091,3.091,0,0,0,0-3.973,2.453,2.453,0,0,0-3.467-.117q-.06.057-.117.117a2.762,2.762,0,0,0-.723,1.979" fill="#818181"/>
    <path id="Path_23501" data-name="Path 23501" d="M145.745,19.606a4.3,4.3,0,0,1-1.211-.164,3.951,3.951,0,0,1-1.03-.459,3.325,3.325,0,0,1-.793-.7,2.931,2.931,0,0,1-.5-.9l1.367-.561a2.149,2.149,0,0,0,.818,1.075,2.3,2.3,0,0,0,1.352.4,2.4,2.4,0,0,0,1.838-.7,2.708,2.708,0,0,0,.661-1.932v-.736h-.063a2.835,2.835,0,0,1-1.109.96,3.339,3.339,0,0,1-1.517.349,3.419,3.419,0,0,1-2.594-1.169,4.2,4.2,0,0,1-1.069-2.9,4.155,4.155,0,0,1,1.069-2.88,3.406,3.406,0,0,1,2.594-1.184,3.339,3.339,0,0,1,1.517.349,2.835,2.835,0,0,1,1.109.96h.063V8.358h1.385v7.305a3.644,3.644,0,0,1-3.323,3.938,3.726,3.726,0,0,1-.559,0Zm.045-4.672a2.22,2.22,0,0,0,1.745-.763,3.141,3.141,0,0,0,0-3.973,2.233,2.233,0,0,0-1.745-.779,2.267,2.267,0,0,0-1.745.779,2.835,2.835,0,0,0-.708,1.979,2.793,2.793,0,0,0,.708,1.972,2.263,2.263,0,0,0,1.745.785" fill="#818181"/>
    <path id="Path_23502" data-name="Path 23502" d="M153.257,5.725a.97.97,0,0,1-.3.716,1.032,1.032,0,0,1-1.446,0,1.008,1.008,0,0,1-.007-1.425l.007-.008a1.032,1.032,0,0,1,1.446,0,.975.975,0,0,1,.3.717m-.3,2.633V15.99h-1.446V8.358Z" fill="#818181"/>
    <path id="Path_23503" data-name="Path 23503" d="M158.224,16.243a3.7,3.7,0,0,1-2.8-1.153,4.047,4.047,0,0,1-1.1-2.913,4.125,4.125,0,0,1,1.069-2.9,3.867,3.867,0,0,1,5.462-.062,4.367,4.367,0,0,1,1.014,3.077l-.016.155H155.8a2.454,2.454,0,0,0,4.216,1.744,2.448,2.448,0,0,0,.436-.622l1.288.623A3.8,3.8,0,0,1,160.3,15.7a4,4,0,0,1-2.081.545m-2.311-4.985h4.417a1.894,1.894,0,0,0-.653-1.316,2.29,2.29,0,0,0-1.58-.523,2.11,2.11,0,0,0-1.407.5,2.367,2.367,0,0,0-.776,1.338Z" fill="#818181"/>
    <path id="Path_23504" data-name="Path 23504" d="M169.164,13.873a2.063,2.063,0,0,1-.88,1.682,3.487,3.487,0,0,1-2.217.685,3.534,3.534,0,0,1-2.043-.6,3.318,3.318,0,0,1-1.258-1.58l1.29-.545a2.374,2.374,0,0,0,.826,1.069,2.016,2.016,0,0,0,1.187.381,2.113,2.113,0,0,0,1.156-.3.842.842,0,0,0,.464-.7q0-.732-1.135-1.075l-1.321-.328q-2.249-.56-2.247-2.149a1.979,1.979,0,0,1,.856-1.674,3.959,3.959,0,0,1,4.04-.148,2.632,2.632,0,0,1,1.155,1.293l-1.288.529a1.613,1.613,0,0,0-.716-.755,2.244,2.244,0,0,0-1.108-.273,1.87,1.87,0,0,0-1.014.281.8.8,0,0,0-.447.684q0,.655,1.241.935l1.163.3q2.3.552,2.3,2.284" fill="#818181"/>
    <path id="Path_23505" data-name="Path 23505" d="M26.574,4.841h2.061V7.975L28.51,9.363h.125a2.546,2.546,0,0,1,.952-.9,2.785,2.785,0,0,1,1.392-.35,2.69,2.69,0,0,1,2.21.873,3.652,3.652,0,0,1,.716,2.385v4.632h-2.06V11.624a1.738,1.738,0,0,0-.38-1.208A1.356,1.356,0,0,0,30.41,10a1.554,1.554,0,0,0-.755.179,1.67,1.67,0,0,0-.558.489,2.268,2.268,0,0,0-.347.725,3.194,3.194,0,0,0-.118.881V16H26.574Z" fill="#818181"/>
    <path id="Path_23506" data-name="Path 23506" d="M42.9,14.165a4.3,4.3,0,0,1-1.439,1.512,4.036,4.036,0,0,1-2.211.577,4.287,4.287,0,0,1-1.629-.3,3.922,3.922,0,0,1-1.3-.85,3.861,3.861,0,0,1-.857-1.286,4.194,4.194,0,0,1-.307-1.63,4.146,4.146,0,0,1,.3-1.567,3.967,3.967,0,0,1,2.1-2.172,3.905,3.905,0,0,1,1.613-.326,4.247,4.247,0,0,1,1.652.3,3.4,3.4,0,0,1,1.211.842,3.641,3.641,0,0,1,.74,1.272,4.9,4.9,0,0,1,.252,1.59v.187a.9.9,0,0,0-.016.172.813.813,0,0,0-.016.171H37.194a2.138,2.138,0,0,0,.261.8,1.944,1.944,0,0,0,.488.561,1.9,1.9,0,0,0,.638.326,2.517,2.517,0,0,0,.706.1,2.025,2.025,0,0,0,1.172-.32,2.358,2.358,0,0,0,.732-.8ZM41.033,11.2a1.3,1.3,0,0,0-.134-.452,1.59,1.59,0,0,0-.346-.468,1.806,1.806,0,0,0-.566-.358,2.1,2.1,0,0,0-.81-.141,1.9,1.9,0,0,0-1.165.374,1.98,1.98,0,0,0-.706,1.044Z" fill="#818181"/>
    <rect id="Rectangle_4818" data-name="Rectangle 4818" width="2.061" height="11.165" transform="translate(44.352 4.841)" fill="#818181"/>
    <rect id="Rectangle_4819" data-name="Rectangle 4819" width="2.064" height="11.165" transform="translate(48.173 4.841)" fill="#818181"/>
    <path id="Path_23507" data-name="Path 23507" d="M59.22,14.165a4.3,4.3,0,0,1-1.44,1.512,4.022,4.022,0,0,1-2.21.577,4.283,4.283,0,0,1-1.629-.3,3.912,3.912,0,0,1-1.3-.85,3.856,3.856,0,0,1-.857-1.286,4.213,4.213,0,0,1-.308-1.63,4.146,4.146,0,0,1,.3-1.567,3.969,3.969,0,0,1,2.1-2.172,3.905,3.905,0,0,1,1.613-.326,4.242,4.242,0,0,1,1.651.3,3.383,3.383,0,0,1,1.211.842,3.626,3.626,0,0,1,.74,1.272,4.85,4.85,0,0,1,.252,1.59v.187a1.1,1.1,0,0,0-.016.172.885.885,0,0,0-.015.171H53.508a2.154,2.154,0,0,0,.26.8,1.933,1.933,0,0,0,.489.561,1.888,1.888,0,0,0,.637.326,2.517,2.517,0,0,0,.706.1,2.025,2.025,0,0,0,1.172-.32,2.355,2.355,0,0,0,.731-.8ZM57.348,11.2a1.3,1.3,0,0,0-.134-.452,1.608,1.608,0,0,0-.346-.468,1.8,1.8,0,0,0-.567-.358,2.092,2.092,0,0,0-.809-.141,1.9,1.9,0,0,0-1.165.374,1.98,1.98,0,0,0-.706,1.044Z" fill="#818181"/>
    <path id="Path_23508" data-name="Path 23508" d="M62.6,9.363h.126a2.6,2.6,0,0,1,.978-.912,2.855,2.855,0,0,1,1.4-.335,3.229,3.229,0,0,1,1.274.233,2.334,2.334,0,0,1,.905.663,2.922,2.922,0,0,1,.535,1.028A4.628,4.628,0,0,1,68,11.374V16H65.938V11.624a1.749,1.749,0,0,0-.369-1.224,1.4,1.4,0,0,0-1.078-.4,1.518,1.518,0,0,0-.747.179,1.729,1.729,0,0,0-.551.484,2.186,2.186,0,0,0-.346.717,3.155,3.155,0,0,0-.117.881V16H60.668V8.365H62.6Z" fill="#818181"/>
    <path id="Path_23509" data-name="Path 23509" d="M70.847,7.336a1.317,1.317,0,0,1-.511-.1,1.317,1.317,0,0,1-.708-.694,1.328,1.328,0,0,1,2.163-1.445,1.29,1.29,0,0,1,.03,1.825l-.03.03a1.3,1.3,0,0,1-.944.386M69.824,8.365h2.064V16H69.824Z" fill="#818181"/>
    <path id="Path_23510" data-name="Path 23510" d="M81.01,14.056A4.29,4.29,0,0,1,79.6,15.639a3.919,3.919,0,0,1-2.258.615,4.3,4.3,0,0,1-1.644-.3,3.821,3.821,0,0,1-1.29-.849,3.949,3.949,0,0,1-.85-1.287,4.226,4.226,0,0,1-.307-1.629,4.285,4.285,0,0,1,.307-1.637,3.841,3.841,0,0,1,.85-1.287,3.908,3.908,0,0,1,1.29-.842,4.323,4.323,0,0,1,1.644-.3,3.955,3.955,0,0,1,2.25.608A3.612,3.612,0,0,1,80.931,10.3l-1.888.779a2.008,2.008,0,0,0-.684-.8A1.879,1.879,0,0,0,77.313,10a1.957,1.957,0,0,0-1.841,1.279,2.676,2.676,0,0,0,0,1.809,1.988,1.988,0,0,0,.435.686,1.959,1.959,0,0,0,.637.434,1.9,1.9,0,0,0,.77.156,1.965,1.965,0,0,0,1.093-.289,2.016,2.016,0,0,0,.717-.833Z" fill="#818181"/>
    <path id="Path_23511" data-name="Path 23511" d="M0,10.59H0A10.591,10.591,0,0,0,10.591,21.181h.657A10.59,10.59,0,0,0,11.248,0h-.657A10.59,10.59,0,0,0,0,10.59m7.562,4.923A.488.488,0,0,1,7.07,16H5.839a.489.489,0,0,1-.492-.485V5.667a.49.49,0,0,1,.492-.485H7.067a.488.488,0,0,1,.492.485Zm8.93,0a.489.489,0,0,1-.3.45A.506.506,0,0,1,16,16H14.769a.491.491,0,0,1-.493-.485v-3.2a.63.63,0,0,0-.632-.628H10.353A.49.49,0,0,1,9.86,11.2V9.98a.49.49,0,0,1,.493-.485h3.32a.6.6,0,0,0,.6-.6h0V5.667a.485.485,0,0,1,.144-.345.494.494,0,0,1,.348-.143H16a.5.5,0,0,1,.191.038.487.487,0,0,1,.3.45Z" fill="#818181"/>
  </g>
</svg>
