<svg id="Ebene_2" data-name="Ebene 2" xmlns="http://www.w3.org/2000/svg" xmlns:xlink="http://www.w3.org/1999/xlink" width="226.101" height="109.541" viewBox="0 0 226.101 109.541">
  <defs>
    <clipPath id="clip-path">
      <rect id="Rectangle_6180" data-name="Rectangle 6180" width="226.101" height="109.541" fill="none"/>
    </clipPath>
  </defs>
  <g id="Ebene_1" data-name="Ebene 1" transform="translate(0)">
    <path id="Path_38488" data-name="Path 38488" d="M126.73,88.624c-.089,3,2.349,4.795,5.725,4.795,2.978,0,5.858-1.338,5.858-4.36,0-1.648-.886-2.836-3.093-3.456a4.626,4.626,0,0,0,3.155-4.564A5,5,0,0,0,136.93,77.4l1.267-1.489-1.312-1.055-1.214,1.471a5.92,5.92,0,0,0-3.173-.886c-2.88,0-5.929,1.861-5.929,5.557,0,3.545,2.428,5.53,5.929,5.53,2.092,0,3.926.691,3.926,2.508S134.4,91.7,132.472,91.7s-3.97-.886-3.97-3.093Zm1.684-7.586a4.077,4.077,0,0,1,8.145,0,3.864,3.864,0,0,1-4.041,3.891,3.811,3.811,0,0,1-4.1-3.917M152.706,85.2l-1.258-1.126a4.865,4.865,0,0,1-3.545,1.409,3.846,3.846,0,0,1-4.112-3.474h9.527c.434-4.476-2.162-6.505-5.6-6.505a5.867,5.867,0,1,0,.089,11.734,6.434,6.434,0,0,0,4.848-2.012Zm-8.863-4.777a3.758,3.758,0,0,1,3.97-3.279c2.207,0,3.7,1.117,3.784,3.279ZM159.2,75.72h-1.773V86.957h1.861v-6.2a3.208,3.208,0,0,1,3.288-3.35,3,3,0,0,1,1.941.6l.886-1.578a4.2,4.2,0,0,0-2.659-.886,3.669,3.669,0,0,0-3.439,1.852l-.124-1.684h0Zm9.492,0V86.957h1.852V80.6a3.128,3.128,0,0,1,3.049-3.35,3.031,3.031,0,0,1,2.987,3.288v6.416h1.861V80.541a3.093,3.093,0,0,1,3.066-3.288c1.835,0,2.9,1.409,2.9,3.244v6.461h1.923V80.5c0-3.093-1.772-4.99-4.733-4.99a4.174,4.174,0,0,0-3.953,2.437,3.731,3.731,0,0,0-3.767-2.437,3.625,3.625,0,0,0-3.306,1.9l-.106-1.657h-1.773Zm33.412,11.238V75.746h-1.817v2.047a4.431,4.431,0,0,0-4.148-2.287,5.495,5.495,0,0,0-5.778,5.858,5.566,5.566,0,0,0,5.716,5.876,4.777,4.777,0,0,0,4.13-2.269v1.985Zm-5.92-9.678c5.424,0,5.406,8.251,0,8.251a3.944,3.944,0,0,1-4.024-4.1,3.882,3.882,0,0,1,4.024-4.148m11.087,9.678h1.835V80.949a3.465,3.465,0,0,1,3.377-3.713c2.154,0,3.235,1.276,3.235,3.545v6.2h1.861v-6.2c0-3.385-1.941-5.247-4.75-5.247a4.236,4.236,0,0,0-3.767,2.012l-.106-1.773h-1.684ZM231.99,75.746h-2.03L227.479,81.6l-1.188,3.173-1.232-3.2-2.207-5.832h-2.118l4.52,11.06-2.34,5.45h2.012l7.09-16.511Z" transform="translate(-14.397 -8.515)" fill="#fff"/>
    <g id="Group_4604" data-name="Group 4604" clip-path="url(#clip-path)">
      <path id="Path_38491" data-name="Path 38491" d="M0,0H108.4" transform="translate(0 78.167)" fill="none" stroke="#fff" stroke-width="1.49"/>
    </g>
    <path id="Path_38489" data-name="Path 38489" d="M1.241,107.54H0v10.635H1.631v-7.515l5.734,7.515H8.588V107.54H6.975v7.569Zm12.5,3a3.66,3.66,0,0,0-3.66,3.908,3.687,3.687,0,1,0,7.356,0,3.7,3.7,0,0,0-3.7-3.908m0,1.445a2.3,2.3,0,0,1,2.216,2.464,2.207,2.207,0,1,1-4.378,0,2.269,2.269,0,0,1,2.18-2.464m4.484,5.318a.917.917,0,1,0,.917-.917.917.917,0,0,0-.917.917m4.546.886H27.97V116.8H26.2V107.54l-3.332,1.108v1.489l1.728-.514V116.8H22.821v1.418ZM33,107.549v10.635h.948v-4.041a2.419,2.419,0,0,1,2.393-2.606c1.436,0,2.118.886,2.118,2.437v4.21h.966v-4.21c0-2.012-.984-3.412-2.969-3.412a2.747,2.747,0,0,0-2.49,1.418v-4.431Zm14.924,7.329c.275-2.951-1.436-4.351-3.545-4.307a3.887,3.887,0,1,0,3.1,6.372l-.647-.612a3.164,3.164,0,0,1-2.411,1.037,2.588,2.588,0,0,1-2.765-2.5Zm-6.2-.886a2.588,2.588,0,0,1,2.659-2.535,2.464,2.464,0,0,1,2.659,2.535Zm13.666-1.843a3.146,3.146,0,0,0-2.827-1.6,3.891,3.891,0,0,0,0,7.772,3.27,3.27,0,0,0,2.863-1.648v1.5H56.3v-7.515h-.886v1.489Zm-2.827-.665c3.687,0,3.687,5.885,0,5.885a2.951,2.951,0,0,1,0-5.885m5.592,6.691h.966V107.54h-.966Zm3.607-9.625v2.171H60.265v.886h1.453V115.8c0,1.569.6,2.508,2.154,2.5a3.1,3.1,0,0,0,1.374-.372l-.31-.886a2.446,2.446,0,0,1-1.037.292c-.966,0-1.214-.612-1.214-1.569v-4.192H65v-.886H62.72v-2.278l-.966.106Zm4.5-1.019v10.635h.966v-4.024a2.419,2.419,0,0,1,2.357-2.6c1.436,0,2.118.886,2.118,2.437v4.21h.975v-4.21c0-2.012-.984-3.412-2.969-3.412a2.747,2.747,0,0,0-2.49,1.418v-4.431ZM83.582,116.5a2.712,2.712,0,0,1-1.976.886,2.925,2.925,0,0,1,0-5.84,2.561,2.561,0,0,1,1.879.807l.638-.647a3.3,3.3,0,0,0-2.517-1.108,3.891,3.891,0,1,0,2.659,6.629l-.665-.682Zm7.648-4.352a3.164,3.164,0,0,0-2.827-1.6,3.891,3.891,0,0,0,0,7.772,3.27,3.27,0,0,0,2.863-1.648v1.5h.886v-7.515h-.886v1.489Zm-2.8-.665c3.687,0,3.687,5.885,0,5.885a2.951,2.951,0,0,1,0-5.885m5.539-.824v7.515h.966V113.9a2.251,2.251,0,0,1,2.207-2.375,2.109,2.109,0,0,1,1.232.4l.443-.886a2.455,2.455,0,0,0-1.613-.532,2.34,2.34,0,0,0-2.269,1.347l-.053-1.232Zm12.23,4.2c.275-2.951-1.427-4.351-3.545-4.307a3.887,3.887,0,1,0,3.1,6.372l-.647-.612a3.137,3.137,0,0,1-2.411,1.037,2.588,2.588,0,0,1-2.7-2.49Zm-6.2-.886a2.588,2.588,0,0,1,2.659-2.535,2.464,2.464,0,0,1,2.659,2.535Zm15.217-2.49a2.925,2.925,0,1,1-2.764,2.92,2.934,2.934,0,0,1,2.764-2.92M111.5,107.46v10.688h.886l.053-1.436a2.951,2.951,0,0,0,2.8,1.586c2.021,0,3.6-1.4,3.6-3.891s-1.586-3.926-3.6-3.882a3,3,0,0,0-2.8,1.613V107.5Zm8.8,3.173v7.515h.975v-4.272a2.251,2.251,0,0,1,2.207-2.375,2.083,2.083,0,0,1,1.223.4l.452-.886a2.482,2.482,0,0,0-1.622-.532,2.331,2.331,0,0,0-2.26,1.347l-.062-1.232Zm11.521,1.489a3.164,3.164,0,0,0-2.827-1.6,3.891,3.891,0,0,0,0,7.772,3.279,3.279,0,0,0,2.863-1.648v1.5h.886v-7.515h-.886v1.489Zm-2.8-.665c3.678,0,3.678,5.885,0,5.885a2.951,2.951,0,0,1,0-5.885m12.151,6.691v-4.227a3.111,3.111,0,0,0-1.905-3.191,3.049,3.049,0,0,0-3.758,1.17v-1.267h-.886v7.515h.966v-4.094a2.411,2.411,0,0,1,2.224-2.57,2.166,2.166,0,0,1,2.322,2.464v4.21Zm4.99-6.665a2.933,2.933,0,1,1-2.655,2.92,2.925,2.925,0,0,1,2.655-2.92m2.747-3.962v4.617a3,3,0,0,0-2.854-1.542,3.9,3.9,0,0,0,0,7.772,3.084,3.084,0,0,0,2.8-1.648v1.5h.939V107.584Zm6.753,10.635h.975v-7.542h-.975Zm-.186-9.864a.691.691,0,1,0,.319-.663.691.691,0,0,0-.319.663m9.6,9.864V113.93a3.093,3.093,0,0,0-1.905-3.191,3.04,3.04,0,0,0-3.749,1.17v-1.267h-.886v7.515h.966v-4.094a2.411,2.411,0,0,1,2.34-2.579,2.171,2.171,0,0,1,2.331,2.464v4.21Zm13.232-1.01h-6.2v-3.8h5.832v-.975H172.1v-3.82h6.035v-1h-7.09v10.635h7.25v-1.01Zm1.152-6.505v4.227c0,2.109,1.214,3.439,3.066,3.439a2.907,2.907,0,0,0,2.526-1.418v1.267h.886v-7.515h-.975v4.094a2.393,2.393,0,0,1-2.34,2.561,2.138,2.138,0,0,1-2.251-2.446v-4.21Zm8.357,0v7.515h.957v-4.272a2.251,2.251,0,0,1,2.207-2.375,2.109,2.109,0,0,1,1.232.4l.443-.886a2.473,2.473,0,0,0-1.613-.532,2.34,2.34,0,0,0-2.269,1.347l-.062-1.232Zm8.685-.106a3.891,3.891,0,1,0,3.66,3.908,3.634,3.634,0,0,0-3.66-3.908m0,.931a2.739,2.739,0,0,1,2.659,2.978,2.7,2.7,0,1,1-2.738-2.978m8.8,5.849a2.916,2.916,0,0,1,0-5.8,2.606,2.606,0,0,1,2.659,2.889,2.659,2.659,0,0,1-2.659,2.916m-2.756,4.431v-5.1a3.075,3.075,0,0,0,2.8,1.675c2.083,0,3.607-1.462,3.607-3.908a3.545,3.545,0,0,0-3.545-3.864,3.146,3.146,0,0,0-2.88,1.7v-1.6h-.913v11.114Zm14.623-6.9c.275-2.951-1.427-4.351-3.545-4.307a3.887,3.887,0,1,0,3.1,6.372L216,116.3a3.164,3.164,0,0,1-2.411,1.037,2.588,2.588,0,0,1-2.7-2.49Zm-6.2-.886a2.579,2.579,0,0,1,2.659-2.535,2.473,2.473,0,0,1,2.659,2.535Z" transform="translate(0 -12.223)" fill="#fff"/>
    <path id="Path_38490" data-name="Path 38490" d="M32.162,44.8a12.735,12.735,0,0,1-12.753,4.75,12.478,12.478,0,0,1-9.04-10.015,12.319,12.319,0,0,1,5.583-12.408,12.408,12.408,0,0,1,13.028.266,12.452,12.452,0,0,1,3.182,17.388m6.913,7.09c4.679-5.318,6.2-13.294,4.254-20.552C40.883,23.273,33.678,16.7,25.258,15.811c-5.672-.514-11.034.62-15.155,3.953V0H0V36.106c.044,4.662.727,8.313,2.659,11.858,4.068,7.7,12.257,12.088,21.27,11.6a23.043,23.043,0,0,0,15.146-7.648M81.2,34.192H57.438c1.267-5.8,5.814-9.465,11.982-9.465,6.381,0,10.733,3.43,11.778,9.465m9.394,7.923a34.849,34.849,0,0,0,.425-4.7c0-12.691-8.863-21.882-21.6-21.882s-22.015,9.217-22.015,22.05S56.942,59.6,70.191,59.6c7.365,0,13.675-2.455,17.947-6.594l-5.61-6.868a18.514,18.514,0,0,1-12.337,4.139c-6.2,0-10.724-3.084-12.408-8.136Zm42.983-1.055V17.1H123.189V40.6c0,5.752-3.43,8.978-9.04,8.978s-9.04-3.226-9.04-8.978V17.1H94.732V41.087c0,11.22,8.419,18.443,19.427,18.443s19.418-7.241,19.418-18.443m24.549-15.146V15.953c-11.007,0-19.418,7.223-19.418,18.443V58.4h10.378V34.918c0-5.752,3.439-8.978,9.04-8.978m34.936,8.278H169.274c1.267-5.8,5.814-9.465,11.982-9.465,6.381,0,10.724,3.43,11.778,9.465m9.394,7.923a34.846,34.846,0,0,0,.425-4.7c0-12.691-8.863-21.882-21.6-21.882s-22,9.12-22,22.023S168.8,59.6,182.054,59.6c7.365,0,13.675-2.455,17.947-6.594l-5.61-6.868a18.514,18.514,0,0,1-12.337,4.139c-6.2,0-10.724-3.084-12.408-8.136Zm23.645-16.2V15.953c-11.007,0-19.427,7.223-19.427,18.443V58.4h10.378V34.918c0-5.752,3.439-8.978,9.049-8.978" fill="#fff"/>
  </g>
</svg>
