<svg id="nivea_logo" data-name="nivea logo" xmlns="http://www.w3.org/2000/svg" xmlns:xlink="http://www.w3.org/1999/xlink" width="100.001" height="100" viewBox="0 0 100.001 100">
  <defs>
    <clipPath id="clip-path">
      <rect id="Rectangle_6134" data-name="Rectangle 6134" width="100.001" height="100" fill="none"/>
    </clipPath>
  </defs>
  <g id="Group_4594" data-name="Group 4594" clip-path="url(#clip-path)">
    <path id="Path_38482" data-name="Path 38482" d="M100,50A50,50,0,1,1,50,0a50,50,0,0,1,50,50" fill="#0a2a79"/>
    <path id="Path_38483" data-name="Path 38483" d="M478.475,343.334h-5.127v2.289l5.127-.005v3.092h-5.127v2.539h5.127v4.261H468.018V339.192h10.457Z" transform="translate(-410.201 -297.289)" fill="#fff"/>
    <path id="Path_38484" data-name="Path 38484" d="M571.088,341.507c0,.013,2.043-4.184,2.043-4.184s2,4.2,2,4.184Zm2.043-13.188c-3.307,5.836-9.816,17.661-9.816,17.661h5.578l.9-1.776h6.661l.877,1.776h5.616Z" transform="translate(-493.725 -287.76)" fill="#fff"/>
    <path id="Path_38485" data-name="Path 38485" d="M319.064,346.5l3.66-7.313h5.687c.02,0-9.347,17.533-9.347,17.533l-9.335-17.533h5.691s3.352,6.8,3.644,7.313" transform="translate(-271.466 -297.29)" fill="#fff"/>
    <path id="Path_38486" data-name="Path 38486" d="M264.813,355.506h-5.336V339.187s5.336.02,5.336,0Z" transform="translate(-227.422 -297.285)" fill="#fff"/>
    <path id="Path_38487" data-name="Path 38487" d="M115.774,336.739v-6.316h5.334v17.534l-8.663-7.537v6.322H107.1V329.189Z" transform="translate(-93.873 -288.523)" fill="#fff"/>
  </g>
</svg>
